<svg width="56" height="56" viewBox="0 0 56 56" fill="none" xmlns="http://www.w3.org/2000/svg">
<mask id="mask0_771_1948" style="mask-type:alpha" maskUnits="userSpaceOnUse" x="0" y="0" width="56" height="56">
<rect width="56" height="56" transform="matrix(-1 0 0 1 56 0)" fill="#D9D9D9"/>
</mask>
<g mask="url(#mask0_771_1948)">
<path d="M24.7648 28L31.9398 35.175L30.3333 36.8398L21.4936 28L30.3333 19.1602L31.9398 20.825L24.7648 28ZM27.9922 49C30.8961 49 33.6263 48.449 36.1828 47.3469C38.7392 46.2448 40.963 44.7491 42.8541 42.8598C44.7451 40.9705 46.2422 38.7488 47.3453 36.1948C48.4484 33.6407 49 30.9117 49 28.0078C49 25.1039 48.449 22.3737 47.3469 19.8172C46.2448 17.2608 44.7491 15.037 42.8598 13.1459C40.9705 11.2549 38.7488 9.75781 36.1948 8.65469C33.6407 7.55156 30.9117 7 28.0078 7C25.1039 7 22.3737 7.55104 19.8172 8.65311C17.2608 9.75522 15.037 11.2509 13.1459 13.1402C11.2549 15.0295 9.75781 17.2512 8.65469 19.8052C7.55156 22.3593 7 25.0883 7 27.9922C7 30.8961 7.55104 33.6263 8.65311 36.1828C9.75522 38.7392 11.2509 40.963 13.1402 42.8541C15.0295 44.7451 17.2512 46.2422 19.8052 47.3453C22.3593 48.4484 25.0883 49 27.9922 49ZM28 46.6667C22.7889 46.6667 18.375 44.8583 14.7583 41.2417C11.1417 37.625 9.33334 33.2111 9.33334 28C9.33334 22.7889 11.1417 18.375 14.7583 14.7583C18.375 11.1417 22.7889 9.33333 28 9.33333C33.2111 9.33333 37.625 11.1417 41.2417 14.7583C44.8583 18.375 46.6667 22.7889 46.6667 28C46.6667 33.2111 44.8583 37.625 41.2417 41.2417C37.625 44.8583 33.2111 46.6667 28 46.6667Z" fill="#152B14"/>
</g>
</svg>
